<?xml version="1.0" standalone="no"?>
<!DOCTYPE svg PUBLIC "-//W3C//DTD SVG 20010904//EN"
 "http://www.w3.org/TR/2001/REC-SVG-20010904/DTD/svg10.dtd">
<svg version="1.0" xmlns="http://www.w3.org/2000/svg"
 width="500.000000pt" height="500.000000pt" viewBox="0 0 500.000000 500.000000"
 preserveAspectRatio="xMidYMid meet">

<g transform="translate(0.000000,500.000000) scale(0.100000,-0.100000)"
fill="#000000" stroke="none">
<path d="M2280 4481 c-290 -32 -654 -177 -889 -355 -29 -23 -68 -51 -85 -62
-17 -12 -76 -66 -130 -120 -54 -55 -104 -98 -110 -96 -6 2 -8 0 -4 -3 4 -4
-19 -40 -51 -79 -114 -140 -245 -355 -293 -478 -57 -149 -111 -331 -131 -440
-32 -177 -31 -507 1 -687 37 -206 130 -473 213 -613 22 -39 37 -74 33 -81 -4
-6 -4 -9 1 -5 4 4 39 -38 77 -95 159 -235 357 -424 607 -579 53 -33 107 -65
121 -70 64 -24 99 -42 94 -50 -3 -4 2 -5 11 -2 8 4 21 2 28 -4 14 -11 201 -75
267 -91 175 -41 215 -45 460 -46 196 0 266 4 350 19 239 42 482 135 689 265
41 25 78 45 83 43 5 -1 7 1 4 6 -2 4 21 25 52 47 78 54 328 307 376 380 22 33
53 73 70 89 17 16 25 25 17 21 -9 -5 -7 1 4 19 9 14 22 23 28 19 6 -3 7 -1 3
5 -4 6 14 48 40 92 25 45 54 102 64 128 10 26 29 72 43 102 34 74 93 279 111
387 52 299 39 600 -36 873 -54 198 -211 533 -290 617 -11 12 -17 26 -13 33 3
6 2 9 -3 8 -5 -2 -30 24 -54 57 -61 83 -227 254 -296 306 -31 24 -77 60 -102
80 -55 43 -212 141 -260 162 -19 8 -73 33 -120 55 -106 50 -246 95 -381 122
-81 17 -150 22 -314 25 -115 2 -244 0 -285 -4z m421 -170 c12 -15 19 -39 19
-66 0 -36 -8 -53 -42 -98 -24 -30 -56 -72 -73 -93 -16 -22 -56 -71 -87 -110
-32 -39 -58 -74 -58 -77 0 -4 42 -7 94 -7 54 0 98 -4 101 -10 10 -16 8 -141
-1 -150 -5 -4 -74 -11 -154 -14 -80 -4 -166 -9 -192 -13 -69 -8 -97 2 -114 42
-8 19 -14 52 -14 73 0 41 40 98 244 347 16 20 27 38 24 40 -3 3 -51 0 -107 -6
-64 -7 -106 -8 -112 -2 -5 5 -14 34 -18 64 -7 42 -6 57 5 69 23 23 158 39 317
37 143 -2 150 -3 168 -26z m385 -65 c126 -43 227 -89 253 -115 23 -23 27 -67
9 -106 -11 -25 -138 -118 -233 -170 -27 -15 -65 -39 -84 -53 l-34 -25 84 -31
c103 -38 109 -42 109 -69 0 -30 -46 -127 -61 -127 -6 0 -53 15 -103 34 -51 19
-132 45 -181 57 -111 28 -129 44 -123 110 3 26 12 59 20 72 9 13 69 60 135
105 65 45 132 91 148 102 17 12 38 27 48 33 16 11 7 17 -74 43 -51 17 -97 38
-103 46 -7 12 -5 33 7 72 17 53 20 56 51 56 17 0 77 -15 132 -34z m-1091 -6
c6 -10 137 -489 149 -545 3 -16 3 -35 -2 -41 -10 -16 -153 -57 -162 -47 -12
12 -163 512 -168 554 -4 36 -3 37 50 57 29 10 60 22 68 25 25 9 58 8 65 -3z
m-290 -184 c13 -28 52 -128 88 -221 36 -94 73 -189 83 -212 9 -23 14 -48 11
-56 -9 -24 -130 -90 -146 -80 -16 10 -47 79 -206 454 -23 54 -30 81 -23 93 12
22 139 85 157 78 7 -3 24 -28 36 -56z m2043 -227 c15 -11 49 -41 75 -66 43
-41 48 -50 43 -78 -9 -48 -186 -578 -198 -592 -17 -21 -31 -16 -96 33 -66 49
-71 61 -48 115 32 79 34 73 -54 138 -72 54 -84 59 -107 50 -54 -20 -143 40
-143 96 0 34 40 77 102 108 29 15 123 70 208 121 85 52 163 95 173 95 11 1 31
-8 45 -20z m-2347 -9 c47 -13 114 -72 142 -124 16 -31 21 -58 21 -111 0 -89
-22 -133 -103 -208 -34 -31 -61 -60 -61 -64 0 -5 18 -30 40 -57 22 -26 40 -55
40 -62 0 -19 -101 -114 -121 -114 -10 0 -60 57 -120 136 -57 75 -137 177 -176
228 -40 50 -73 97 -73 104 0 8 48 63 108 124 142 146 203 176 303 148z m1309
-321 c109 -15 282 -65 377 -109 45 -21 123 -66 173 -101 106 -72 105 -68 39
-180 -46 -79 -49 -82 -81 -70 -17 7 -18 10 -5 10 9 1 17 5 17 10 0 5 7 11 17
13 12 2 5 11 -25 31 -22 16 -46 26 -51 22 -6 -3 -11 0 -11 8 0 17 -27 30 -42
20 -6 -3 -8 -2 -5 4 3 5 -14 17 -39 26 -24 9 -44 12 -44 7 0 -6 10 -10 23 -11
21 -1 21 -1 -3 -9 -14 -4 -19 -8 -12 -9 6 -1 12 -8 12 -16 0 -12 -4 -13 -25
-3 -20 9 -22 13 -11 22 10 7 11 18 6 32 -6 16 -33 27 -121 52 -172 47 -231 56
-389 56 -157 0 -217 -9 -385 -56 -124 -34 -175 -56 -175 -74 0 -7 -8 -11 -17
-9 -21 3 -104 -36 -150 -71 -17 -13 -36 -24 -40 -24 -10 0 -83 124 -83 141 0
14 15 26 110 90 256 172 601 244 940 198z m-157 -256 c-7 -2 -19 -2 -25 0 -7
3 -2 5 12 5 14 0 19 -2 13 -5z m176 -9 c8 -7 -84 -2 -114 6 -18 5 -2 6 40 3
39 -3 72 -7 74 -9z m-1760 -74 c4 -8 27 -22 49 -30 23 -8 42 -17 42 -20 0 -3
-19 -12 -42 -20 -35 -12 -47 -23 -62 -58 l-20 -43 -20 42 c-21 43 -25 46 -81
69 l-30 12 25 10 c63 24 75 35 90 77 l15 43 13 -34 c7 -18 16 -40 21 -48z
m1389 73 c-10 -2 -26 -2 -35 0 -10 3 -2 5 17 5 19 0 27 -2 18 -5z m1731 -73
c4 -8 27 -21 49 -28 50 -17 53 -28 10 -37 -43 -9 -65 -29 -79 -73 l-12 -35
-21 43 c-11 24 -28 47 -36 51 -8 4 -28 12 -45 19 l-30 13 35 14 c58 22 63 28
79 74 l14 44 14 -35 c7 -19 17 -42 22 -50z m-1822 64 c-3 -3 -12 -4 -19 -1 -8
3 -5 6 6 6 11 1 17 -2 13 -5z m516 -1 c-7 -2 -19 -2 -25 0 -7 3 -2 5 12 5 14
0 19 -2 13 -5z m-643 -29 c-91 -27 -223 -86 -302 -134 -56 -34 -72 -39 -35
-10 14 11 30 20 36 20 5 0 8 9 6 20 -3 17 -1 19 15 10 13 -7 21 -7 25 0 3 5 0
10 -7 10 -8 0 -5 5 5 11 10 6 28 9 38 6 17 -5 18 -3 8 9 -7 8 -8 14 -3 13 17
-4 44 13 44 27 0 8 5 14 11 14 5 0 8 -4 5 -9 -13 -21 28 -18 110 9 49 16 98
29 109 29 11 0 -18 -11 -65 -25z m755 5 c37 -11 65 -22 63 -24 -2 -2 -37 7
-78 20 -41 13 -70 24 -64 24 7 1 42 -8 79 -20z m-209 -64 c57 -9 138 -27 179
-40 93 -31 252 -109 282 -138 l22 -22 -60 -105 c-34 -58 -74 -132 -90 -165
-16 -33 -61 -114 -99 -180 -39 -66 -87 -154 -108 -195 -20 -41 -71 -133 -111
-205 -41 -71 -93 -166 -116 -210 -23 -44 -51 -95 -62 -113 l-20 -33 -25 43
c-14 24 -40 72 -58 108 -19 36 -68 126 -111 200 -42 74 -99 178 -126 230 -27
52 -80 148 -117 213 -37 66 -85 153 -108 195 -22 43 -58 108 -79 145 -22 38
-39 72 -39 75 0 9 71 53 145 90 112 55 239 92 405 116 64 9 202 5 296 -9z
m413 12 c-2 -1 -13 -9 -24 -17 -19 -14 -19 -14 -6 3 7 9 18 17 24 17 6 0 8 -1
6 -3z m45 -18 c-3 -6 -11 -8 -17 -6 -7 2 -21 0 -32 -5 -18 -8 -18 -8 -4 4 20
16 62 21 53 7z m39 -15 c-7 -3 -10 -11 -7 -19 7 -18 -15 -30 -29 -15 -9 10 -9
11 0 6 6 -3 14 -2 18 4 3 5 -2 10 -12 11 -16 0 -16 1 2 9 11 5 25 9 30 9 6 -1
5 -3 -2 -5z m39 -44 c-5 -12 -7 -12 -10 3 -2 9 -8 17 -13 17 -6 0 -7 4 -4 10
9 15 34 -12 27 -30z m-1882 -360 c0 -183 1 -190 20 -190 19 0 20 7 20 190 0
161 2 190 15 190 12 0 15 -30 17 -187 3 -180 4 -188 23 -188 19 0 20 8 23 188
2 157 5 187 17 187 13 0 15 -29 15 -190 0 -120 4 -190 10 -190 6 0 13 0 18 0
4 0 9 84 12 187 4 136 8 187 18 191 9 3 12 -52 12 -253 0 -264 -4 -291 -43
-324 -8 -6 -18 -39 -22 -76 -6 -60 -8 -65 -31 -65 -24 0 -24 1 -24 90 0 84 -1
90 -20 90 -28 0 -70 44 -70 73 0 16 -7 26 -20 30 -19 5 -20 14 -20 221 0 185
2 216 15 216 13 0 15 -28 15 -190z m2165 2 c0 -124 4 -185 12 -193 28 -28 33
4 33 192 0 161 2 189 15 189 13 0 15 -27 15 -184 0 -143 3 -186 14 -195 31
-26 37 11 34 195 -2 135 0 178 10 181 9 4 12 -37 12 -181 0 -159 2 -188 15
-193 9 -3 19 -2 23 2 4 4 7 89 7 188 0 155 2 182 15 182 13 0 15 -31 18 -212
2 -208 2 -213 -18 -213 -11 0 -20 -3 -21 -7 -5 -49 -31 -90 -65 -103 -23 -9
-24 -14 -24 -95 0 -83 -1 -85 -24 -85 -22 0 -25 5 -31 63 -5 45 -13 69 -31 88
-14 14 -29 41 -34 60 -11 38 -14 492 -3 503 23 22 28 -11 28 -182z m-2617 33
c3 -89 -1 -107 -23 -99 -11 5 -15 22 -15 70 0 64 0 64 -25 58 -19 -5 -25 -2
-25 10 0 16 55 47 75 42 6 -2 11 -38 13 -81z m217 60 c31 -30 32 -62 2 -106
-31 -46 -70 -67 -91 -50 -19 16 -12 31 13 31 10 0 24 7 31 15 11 13 8 15 -13
15 -28 0 -57 32 -57 62 0 26 36 58 65 58 14 0 37 -11 50 -25z m631 6 c17 -10
42 -36 55 -57 24 -39 24 -42 27 -348 2 -201 0 -312 -7 -319 -6 -6 -30 -10 -53
-9 -33 1 -48 8 -65 27 -23 26 -23 27 -23 376 0 326 1 349 18 349 9 0 31 -9 48
-19z m1628 -9 c0 -12 -1 -69 -2 -127 -2 -84 -5 -103 -16 -99 -16 6 -106 -95
-106 -120 0 -28 20 -18 70 37 l49 52 1 -62 c0 -37 -4 -63 -10 -63 -14 0 -110
-102 -110 -117 0 -30 24 -20 70 29 l49 53 1 -72 c0 -62 -2 -71 -16 -66 -10 4
-30 -10 -59 -43 -24 -26 -47 -46 -50 -42 -7 6 -14 416 -7 435 2 6 10 9 19 6
15 -6 102 81 103 105 1 28 -39 9 -77 -38 -23 -28 -44 -47 -46 -43 -10 15 2
103 18 133 16 31 79 71 105 67 8 -1 15 -12 14 -25z m694 6 c-3 -7 -15 -18 -29
-25 -23 -12 -48 -53 -49 -80 0 -7 11 -13 24 -13 35 0 56 -10 56 -26 0 -11 -19
-14 -85 -14 -85 0 -101 8 -66 32 10 7 28 32 40 56 23 45 21 48 -28 54 -14 2
-26 9 -29 16 -3 9 18 12 83 12 65 0 86 -3 83 -12z m212 5 c0 -3 -14 -42 -31
-85 -24 -58 -36 -78 -50 -78 -25 0 -24 8 6 76 14 31 25 58 25 60 0 1 -21 4
-47 6 -26 2 -48 9 -51 16 -3 9 16 12 72 12 42 0 76 -3 76 -7z m-3236 -321 l18
-51 56 -3 c32 -2 57 -8 59 -15 3 -7 -14 -24 -37 -38 -37 -23 -41 -30 -36 -53
4 -15 9 -44 13 -64 7 -46 -7 -50 -57 -13 -19 14 -40 25 -48 25 -9 0 -30 -11
-48 -25 -57 -43 -72 -30 -50 45 15 49 15 50 -10 69 -14 11 -34 23 -45 26 -10
4 -19 15 -19 26 0 17 7 19 59 19 l59 0 13 38 c28 88 45 92 73 14z m3062 6 l19
-53 59 -5 c33 -3 61 -10 63 -17 3 -7 -15 -24 -39 -39 -24 -15 -44 -28 -45 -29
-2 -1 4 -25 12 -54 24 -78 10 -89 -58 -42 l-42 29 -40 -29 c-64 -45 -83 -34
-59 35 20 57 18 63 -31 92 -25 14 -44 31 -42 38 2 6 31 12 65 14 40 2 62 7 62
15 1 20 38 97 48 97 5 0 18 -24 28 -52z m-955 -17 c16 -16 29 -39 29 -51 0
-31 -30 -79 -55 -87 -31 -10 -55 -11 -55 -1 0 5 -4 7 -9 4 -13 -8 -47 36 -49
63 -1 24 22 67 48 88 25 21 60 14 91 -16z m-1130 -47 c57 -56 69 -102 69 -271
l0 -143 30 0 c28 0 30 3 30 35 0 28 4 35 20 35 13 0 24 -10 30 -25 5 -13 27
-53 48 -87 83 -134 145 -242 159 -277 7 -20 25 -57 39 -83 18 -34 21 -48 12
-48 -54 0 -337 24 -353 30 -13 5 -58 75 -118 179 l-97 172 0 119 0 119 43 3
c35 2 43 7 45 26 3 19 -1 22 -30 22 -18 0 -39 4 -46 9 -16 10 -12 79 5 85 20
8 16 34 -7 46 -15 8 -20 21 -20 49 0 49 6 54 58 48 33 -4 53 -14 83 -43z
m1050 -195 c132 -110 149 -129 149 -170 0 -29 -6 -43 -26 -58 -38 -30 -61 -26
-113 20 -25 22 -51 43 -56 47 -97 67 -124 96 -125 132 0 43 42 87 86 89 6 1
45 -27 85 -60z m281 -141 c-10 -10 -31 -20 -48 -21 -47 -3 -42 29 13 93 l48
54 3 -54 c2 -42 -1 -57 -16 -72z m-1859 35 c-7 -2 -21 -2 -30 0 -10 3 -4 5 12
5 17 0 24 -2 18 -5z m2156 3 c-10 -8 -89 -13 -89 -5 0 5 21 9 47 9 25 0 44 -2
42 -4z m-655 -121 c101 -82 106 -87 106 -123 0 -101 -80 -99 -205 5 -104 86
-117 103 -110 131 3 15 16 37 27 50 38 39 67 29 182 -63z m-1494 45 c0 -15 -7
-20 -25 -20 -18 0 -25 5 -25 20 0 15 7 20 25 20 18 0 25 -5 25 -20z m2110 1
c0 -12 -9 -20 -25 -23 -21 -4 -25 -1 -25 18 0 19 5 24 25 24 18 0 25 -5 25
-19z m-2450 -247 l0 -246 -67 72 c-92 100 -223 253 -223 262 0 4 10 14 23 22
35 23 251 135 260 136 4 0 7 -111 7 -246z m2893 163 c70 -38 127 -72 127 -76
0 -7 -142 -173 -257 -300 l-32 -36 -1 247 c0 232 1 247 18 240 9 -4 74 -38
145 -75z m-2568 13 c14 -6 4 -8 -35 -8 -45 0 -50 2 -25 8 39 10 37 10 60 0z
m2148 -7 c-13 -2 -35 -2 -50 0 -16 2 -5 4 22 4 28 0 40 -2 28 -4z m-2131 -180
c3 -76 3 -177 0 -225 -4 -78 -7 -88 -23 -88 -18 0 -19 12 -19 225 0 213 1 225
19 225 17 0 19 -12 23 -137z m2098 -88 l0 -225 -25 0 -25 0 0 218 c0 120 3
222 7 225 3 4 15 7 25 7 17 0 18 -13 18 -225z m-1840 194 c9 -15 8 -24 -1 -35
-18 -22 -53 -13 -57 15 -6 40 39 56 58 20z m1590 6 c20 -24 3 -57 -28 -53 -30
3 -41 30 -22 53 16 19 34 19 50 0z m-499 -66 c135 -111 139 -115 139 -143 0
-37 -42 -74 -79 -71 -18 1 -66 30 -127 76 -79 59 -100 80 -102 102 -5 46 37
94 84 96 6 1 45 -26 85 -60z m-88 -204 c59 -47 107 -90 107 -96 0 -7 -12 -9
-32 -6 -18 3 -88 9 -155 13 -68 4 -123 10 -123 14 0 11 83 160 89 160 3 0 54
-38 114 -85z m-1065 -23 c4 -30 -26 -42 -44 -17 -10 14 -11 22 -2 32 16 20 42
12 46 -15z m1702 13 c10 -12 10 -18 0 -30 -25 -30 -61 -7 -46 30 3 8 12 15 19
15 8 0 20 -7 27 -15z m-65 -162 c15 -43 40 -113 56 -156 16 -42 36 -101 44
-130 7 -28 19 -69 25 -90 15 -52 -3 -137 -38 -179 -54 -64 -169 -95 -253 -67
-42 14 -111 79 -104 97 2 7 0 10 -5 7 -5 -3 -12 7 -16 22 -4 15 -35 112 -70
215 -47 140 -60 189 -51 196 7 5 31 19 54 30 35 18 43 19 53 7 6 -8 9 -19 5
-25 -3 -5 -2 -10 3 -10 5 0 16 -21 25 -47 66 -199 120 -340 134 -350 26 -19
77 -15 107 8 33 26 34 65 2 150 -63 171 -117 340 -111 350 8 12 83 48 101 49
7 0 24 -35 39 -77z m-1040 53 c99 -8 261 -20 360 -27 99 -6 188 -16 198 -21
15 -8 17 -25 17 -133 l0 -123 -66 -7 c-36 -4 -153 -4 -258 0 l-192 7 -36 -249
-35 -248 -62 2 c-35 1 -65 4 -68 6 -2 3 7 86 21 184 36 254 44 317 40 322 -2
2 -32 8 -66 13 -35 5 -64 13 -66 18 -2 6 -26 10 -53 10 -45 0 -50 3 -59 28
-17 46 -25 56 -62 75 -44 22 -83 14 -104 -19 -29 -43 -11 -76 81 -150 92 -76
115 -113 115 -190 0 -114 -82 -186 -211 -186 -114 0 -220 74 -260 181 -24 66
-19 80 36 99 52 17 66 10 95 -51 43 -90 125 -123 176 -71 34 33 26 68 -27 114
-126 109 -157 145 -164 186 -14 85 34 173 119 216 32 16 52 19 101 16 75 -7
118 -27 173 -86 l42 -45 0 72 c0 61 2 71 18 71 9 0 98 -6 197 -14z m-793 -93
c8 -42 -5 -74 -36 -90 -29 -15 -30 -15 -17 1 20 24 -1 46 -29 28 -16 -10 -18
-9 -13 5 5 11 3 14 -6 8 -10 -6 -11 -3 -1 15 6 12 9 28 6 36 -4 11 5 14 44 14
38 0 49 -4 52 -17z m2153 7 c3 -5 0 -10 -7 -11 -10 0 -10 -2 0 -6 23 -9 12
-32 -20 -41 -43 -11 -45 -38 -3 -35 22 2 26 0 15 -7 -42 -27 -90 11 -90 70 l0
40 49 0 c28 0 53 -4 56 -10z m-2547 -44 c-4 -25 -36 -34 -44 -12 -8 21 13 46
32 39 8 -3 14 -15 12 -27z m2876 15 c10 -16 -5 -41 -24 -41 -23 0 -34 16 -26
35 6 16 42 20 50 6z m-324 -41 c0 -5 -4 -10 -10 -10 -5 0 -10 5 -10 10 0 6 5
10 10 10 6 0 10 -4 10 -10z m-2245 -190 c0 -16 -6 -26 -19 -28 -23 -5 -35 13
-28 40 7 30 47 20 47 -12z m2253 -3 c3 -22 -1 -27 -18 -27 -23 0 -35 22 -26
46 10 25 41 12 44 -19z m-798 -222 c0 -205 0 -206 -25 -230 -23 -24 -29 -25
-164 -25 -114 0 -142 3 -155 16 -14 13 -16 48 -16 224 l0 209 128 4 c70 1 151
4 180 5 l52 2 0 -205z"/>
<path d="M3578 3576 c-38 -22 -68 -44 -68 -47 0 -4 21 -21 48 -38 l47 -31 23
72 c12 39 21 74 20 78 -2 4 -33 -12 -70 -34z"/>
<path d="M1263 3621 c-57 -35 -54 -62 16 -141 l31 -35 35 37 c44 47 49 102 12
136 -29 27 -53 28 -94 3z"/>
<path d="M2052 3323 c2 -10 10 -18 18 -18 8 0 16 8 18 18 2 12 -3 17 -18 17
-15 0 -20 -5 -18 -17z"/>
<path d="M1845 3250 c-8 -14 3 -30 21 -30 8 0 14 9 14 20 0 21 -24 28 -35 10z"/>
<path d="M2450 3022 c-19 -16 -21 -22 -11 -40 20 -38 81 -23 81 20 0 9 -9 22
-19 28 -25 13 -25 13 -51 -8z"/>
<path d="M2758 3019 c-72 -11 -135 -63 -157 -128 -17 -51 -13 -140 8 -186 65
-141 256 -167 360 -49 80 91 73 223 -16 305 -56 53 -117 71 -195 58z m73 -61
c22 -6 39 -15 39 -20 0 -5 4 -7 8 -4 10 6 54 -38 70 -70 18 -35 12 -111 -12
-146 -50 -75 -153 -95 -220 -44 -55 42 -71 72 -71 137 0 70 21 104 85 137 51
26 51 26 101 10z"/>
<path d="M2731 2901 c-17 -11 -7 -41 12 -41 19 0 40 26 32 40 -8 12 -25 13
-44 1z"/>
<path d="M2823 2894 c-3 -8 -1 -20 6 -27 14 -14 47 15 37 32 -10 16 -36 13
-43 -5z"/>
<path d="M2677 2803 c18 -27 26 -29 43 -8 17 20 5 34 -29 33 -29 -1 -29 -2
-14 -25z"/>
<path d="M2885 2820 c-9 -14 3 -30 24 -30 9 0 21 -4 27 -10 6 -6 10 -2 11 12
2 18 0 20 -7 8 -8 -12 -10 -10 -10 8 0 15 -6 22 -19 22 -11 0 -23 -4 -26 -10z"/>
<path d="M2695 2750 c-4 -6 -3 -16 3 -22 6 -6 12 -6 17 2 4 6 3 16 -3 22 -6 6
-12 6 -17 -2z"/>
<path d="M2856 2753 c-10 -10 -7 -41 5 -49 6 -3 20 2 30 13 20 19 20 20 -5 31
-13 6 -27 8 -30 5z"/>
<path d="M2773 2723 c-18 -6 -16 -40 3 -47 20 -8 30 -1 37 23 5 20 -16 32 -40
24z"/>
<path d="M2095 2991 c-49 -22 -99 -77 -115 -126 -7 -20 -10 -66 -8 -101 5 -84
41 -138 117 -176 69 -35 128 -36 197 -4 88 41 132 127 119 233 -18 149 -174
236 -310 174z m170 -64 c44 -24 85 -92 85 -139 0 -49 -29 -105 -70 -133 -75
-52 -181 -30 -229 48 -21 34 -40 114 -25 104 5 -3 9 8 10 24 4 96 132 151 229
96z"/>
<path d="M2202 2908 c-16 -16 4 -48 28 -48 13 0 20 7 20 20 0 24 -32 44 -48
28z"/>
<path d="M2123 2893 c-7 -2 -13 -14 -13 -25 0 -14 6 -19 23 -16 14 2 22 10 22
22 0 21 -12 28 -32 19z"/>
<path d="M2271 2816 c-9 -10 -8 -16 4 -26 13 -11 19 -11 32 2 16 17 10 38 -11
38 -8 0 -19 -6 -25 -14z"/>
<path d="M2070 2805 c-21 -25 7 -46 38 -27 15 10 5 42 -13 42 -7 0 -18 -7 -25
-15z"/>
<path d="M2084 2729 c-8 -14 11 -33 25 -25 6 4 11 14 11 22 0 16 -26 19 -36 3z"/>
<path d="M2244 2725 c-4 -9 -2 -21 4 -27 15 -15 44 -1 40 19 -4 23 -36 29 -44
8z"/>
<path d="M2165 2710 c-4 -6 -4 -22 -1 -36 6 -22 8 -23 22 -9 17 17 16 46 -3
52 -6 2 -14 -1 -18 -7z"/>
<path d="M2513 2834 c-7 -19 11 -39 26 -30 16 10 13 33 -4 40 -9 3 -18 -1 -22
-10z"/>
<path d="M2472 2718 c-21 -21 -15 -68 11 -77 44 -17 86 39 57 75 -15 17 -52
18 -68 2z"/>
<path d="M2416 2525 c-85 -30 -146 -119 -146 -212 1 -74 25 -129 80 -176 74
-63 154 -73 237 -32 116 58 161 191 103 304 -53 105 -169 154 -274 116z m146
-70 c18 -9 44 -30 58 -48 21 -26 25 -42 25 -97 0 -53 -5 -71 -24 -99 -62 -86
-212 -79 -267 12 -12 22 -19 52 -19 94 0 53 4 66 31 99 50 62 120 76 196 39z"/>
<path d="M2523 2423 c-22 -8 -15 -40 10 -45 17 -3 23 0 24 13 2 21 -17 38 -34
32z"/>
<path d="M2417 2413 c-15 -14 -6 -33 16 -33 29 0 37 7 30 26 -5 14 -35 19 -46
7z"/>
<path d="M2371 2332 c-8 -15 -7 -23 5 -33 18 -15 38 0 32 27 -5 25 -25 28 -37
6z"/>
<path d="M2576 2334 c-4 -10 -2 -22 3 -27 14 -14 43 0 39 20 -4 24 -34 28 -42
7z"/>
<path d="M2391 2246 c-12 -14 -5 -26 16 -26 15 0 18 26 4 34 -5 3 -14 0 -20
-8z"/>
<path d="M2554 2245 c-4 -9 -2 -21 4 -27 15 -15 44 -1 40 19 -4 23 -36 29 -44
8z"/>
<path d="M2467 2224 c-4 -4 -7 -16 -7 -26 0 -13 7 -18 26 -18 21 0 25 4 22 22
-3 23 -27 35 -41 22z"/>
<path d="M2772 2511 c-22 -13 -11 -65 14 -69 28 -4 48 22 40 53 -6 25 -29 32
-54 16z"/>
<path d="M2174 2445 c-7 -18 3 -35 21 -35 15 0 28 27 19 41 -8 14 -34 11 -40
-6z"/>
<path d="M2484 1946 c-10 -26 4 -48 28 -44 17 2 23 10 23 28 0 18 -6 26 -23
28 -13 2 -25 -3 -28 -12z"/>
<path d="M1410 2450 c0 -11 6 -20 13 -20 19 0 27 10 20 26 -8 21 -33 17 -33
-6z"/>
<path d="M3593 2454 c-9 -23 11 -38 26 -20 13 16 7 36 -10 36 -5 0 -12 -7 -16
-16z"/>
<path d="M1037 2793 c-13 -12 -7 -41 10 -47 9 -4 23 0 31 8 13 12 13 18 2 30
-13 17 -32 21 -43 9z"/>
<path d="M1690 2709 c0 -17 82 -109 97 -109 23 0 14 24 -28 73 -38 44 -69 61
-69 36z"/>
<path d="M1686 2561 c-8 -12 84 -121 101 -121 22 0 14 21 -28 77 -40 51 -61
64 -73 44z"/>
<path d="M1686 2402 c-6 -10 83 -117 98 -117 24 0 14 33 -25 78 -38 44 -62 57
-73 39z"/>
<path d="M1685 2240 c-7 -12 96 -131 107 -124 18 11 5 42 -37 87 -44 47 -59
55 -70 37z"/>
<path d="M3039 1853 c-13 -16 -12 -17 4 -4 16 13 21 21 13 21 -2 0 -10 -8 -17
-17z"/>
<path d="M1094 1952 c-18 -12 -23 -50 -9 -69 19 -25 27 -12 23 36 -2 26 -7 38
-14 33z"/>
<path d="M932 1883 c2 -10 10 -18 18 -18 8 0 16 8 18 18 2 12 -3 17 -18 17
-15 0 -20 -5 -18 -17z"/>
<path d="M974 1827 c-8 -22 3 -37 27 -37 24 0 24 12 -1 35 -17 16 -20 16 -26
2z"/>
<path d="M1057 1823 c-9 -9 22 -43 40 -43 16 0 17 22 1 38 -13 13 -31 16 -41
5z"/>
<path d="M1070 1712 c0 -14 39 -46 47 -38 4 4 2 15 -3 24 -12 19 -44 29 -44
14z"/>
<path d="M3920 1916 c0 -44 17 -55 30 -20 13 32 7 54 -15 54 -10 0 -15 -10
-15 -34z"/>
<path d="M4060 1886 c0 -8 4 -17 9 -20 15 -10 40 5 34 20 -7 18 -43 18 -43 0z"/>
<path d="M4025 1820 c-27 -29 -6 -47 23 -19 12 11 20 24 17 30 -9 14 -20 11
-40 -11z"/>
<path d="M3938 1819 c-17 -9 -26 -39 -12 -39 16 0 44 23 44 35 0 17 -8 18 -32
4z"/>
<path d="M3985 1750 c3 -5 8 -10 11 -10 2 0 4 5 4 10 0 6 -5 10 -11 10 -5 0
-7 -4 -4 -10z"/>
<path d="M3926 1711 c-18 -20 -21 -41 -6 -41 6 0 12 0 15 0 3 0 5 3 6 8 0 4 7
14 15 23 13 14 13 17 0 22 -8 3 -21 -2 -30 -12z"/>
<path d="M2945 1702 c-11 -9 -18 -16 -16 -15 2 2 11 -3 19 -10 13 -10 14 -9 8
1 -4 7 -2 19 4 27 17 20 10 18 -15 -3z"/>
<path d="M2925 1660 c-4 -6 -11 -7 -17 -4 -7 4 -8 2 -4 -5 6 -9 11 -9 22 0 14
11 18 19 10 19 -3 0 -8 -5 -11 -10z"/>
<path d="M2295 1430 c-9 -15 14 -40 31 -33 22 8 18 43 -5 43 -11 0 -23 -5 -26
-10z"/>
<path d="M2700 1370 c0 -15 5 -20 18 -18 9 2 17 10 17 18 0 8 -8 16 -17 18
-13 2 -18 -3 -18 -18z"/>
<path d="M2520 1295 c0 -26 1 -26 68 -23 59 3 67 5 67 23 0 18 -8 20 -67 23
-67 3 -68 3 -68 -23z"/>
<path d="M1604 985 c-4 -9 -2 -21 4 -27 15 -15 44 -1 40 19 -4 23 -36 29 -44
8z"/>
<path d="M2633 1046 c-42 -19 -73 -70 -73 -120 0 -42 30 -100 60 -116 26 -14
100 -12 128 4 77 42 82 171 9 219 -36 24 -88 29 -124 13z"/>
<path d="M2672 738 c6 -18 28 -21 28 -4 0 9 -7 16 -16 16 -9 0 -14 -5 -12 -12z"/>
</g>
</svg>
